<svg xmlns="http://www.w3.org/2000/svg" width="39.843" height="38.848" viewBox="0 0 39.843 38.848">
  <path id="github-logo" d="M13.327,39.28c0,.161-.185.289-.418.289-.265.024-.45-.1-.45-.289,0-.161.185-.289.418-.289C13.118,38.967,13.327,39.1,13.327,39.28Zm-2.5-.361c-.056.161.1.345.345.394a.377.377,0,0,0,.5-.161c.048-.161-.1-.345-.345-.418A.412.412,0,0,0,10.828,38.919Zm3.551-.137c-.233.056-.394.209-.37.394.024.161.233.265.474.209s.394-.209.37-.37S14.612,38.758,14.379,38.782ZM19.665,8A19.262,19.262,0,0,0,0,27.6,20.139,20.139,0,0,0,13.616,46.815c1.028.185,1.39-.45,1.39-.972,0-.5-.024-3.245-.024-4.932,0,0-5.623,1.2-6.8-2.394,0,0-.916-2.338-2.233-2.94,0,0-1.84-1.261.129-1.237a4.24,4.24,0,0,1,3.1,2.073c1.759,3.1,4.707,2.209,5.856,1.679a4.465,4.465,0,0,1,1.285-2.707c-4.49-.5-9.021-1.149-9.021-8.876a6.088,6.088,0,0,1,1.9-4.731A7.59,7.59,0,0,1,9.4,16.322c1.679-.522,5.543,2.169,5.543,2.169a18.977,18.977,0,0,1,10.089,0s3.864-2.7,5.543-2.169a7.586,7.586,0,0,1,.209,5.454,6.244,6.244,0,0,1,2.073,4.731c0,7.752-4.731,8.37-9.222,8.876A4.751,4.751,0,0,1,25,39.112c0,2.707-.024,6.057-.024,6.716,0,.522.37,1.157,1.39.972A19.954,19.954,0,0,0,39.843,27.6C39.843,16.459,30.806,8,19.665,8ZM7.808,35.706c-.1.08-.08.265.056.418.129.129.313.185.418.08.1-.08.08-.265-.056-.418C8.1,35.658,7.912,35.6,7.808,35.706Zm-.868-.651c-.056.1.024.233.185.313a.239.239,0,0,0,.345-.056c.056-.1-.024-.233-.185-.313C7.125,34.951,7,34.975,6.94,35.055Zm2.6,2.86c-.129.1-.08.345.1.5.185.185.418.209.522.08.1-.1.056-.345-.1-.5C9.889,37.81,9.648,37.786,9.543,37.915Zm-.916-1.181c-.129.08-.129.289,0,.474s.345.265.45.185a.366.366,0,0,0,0-.5C8.965,36.71,8.756,36.629,8.627,36.734Z" transform="translate(0 -8)" fill="#3a4750"/>
</svg>
