<svg xmlns="http://www.w3.org/2000/svg" width="39" height="39" viewBox="0 0 39 39">
  <g id="Group_36" data-name="Group 36" transform="translate(0 -0.222)">
    <path id="Union_4" data-name="Union 4" d="M11.46,38.882a14.308,14.308,0,0,1-4.733-.906,9.561,9.561,0,0,1-3.454-2.249,9.552,9.552,0,0,1-2.249-3.454A14.3,14.3,0,0,1,.118,27.54C.023,25.46,0,24.8,0,19.5s.023-5.96.118-8.04a14.312,14.312,0,0,1,.906-4.733,9.556,9.556,0,0,1,2.25-3.454A9.558,9.558,0,0,1,6.727,1.024,14.323,14.323,0,0,1,11.46.117C13.54.023,14.2,0,19.5,0s5.96.023,8.04.118a14.3,14.3,0,0,1,4.734.905,9.556,9.556,0,0,1,3.454,2.25,9.558,9.558,0,0,1,2.249,3.454,14.322,14.322,0,0,1,.907,4.734C38.977,13.54,39,14.2,39,19.5s-.023,5.96-.117,8.04a14.313,14.313,0,0,1-.907,4.734,9.97,9.97,0,0,1-5.7,5.7,14.311,14.311,0,0,1-4.733.906c-2.08.1-2.744.118-8.04.118S13.54,38.977,11.46,38.882Zm.16-35.255A10.787,10.787,0,0,0,8,4.3,6.036,6.036,0,0,0,5.757,5.757,6.051,6.051,0,0,0,4.3,8a10.8,10.8,0,0,0-.671,3.621c-.094,2.056-.114,2.673-.114,7.88s.02,5.824.114,7.88A10.784,10.784,0,0,0,4.3,31a6.039,6.039,0,0,0,1.459,2.242A6.043,6.043,0,0,0,8,34.7a10.79,10.79,0,0,0,3.621.671c2.056.094,2.673.114,7.88.114s5.824-.02,7.88-.114A10.783,10.783,0,0,0,31,34.7,6.457,6.457,0,0,0,34.7,31a10.792,10.792,0,0,0,.671-3.62c.094-2.057.113-2.673.113-7.88s-.02-5.824-.113-7.879A10.778,10.778,0,0,0,34.7,8a6.037,6.037,0,0,0-1.458-2.242A6.05,6.05,0,0,0,31,4.3a10.786,10.786,0,0,0-3.62-.671c-2.057-.094-2.673-.114-7.88-.114S13.676,3.534,11.62,3.627ZM8.435,19.5A11.065,11.065,0,1,1,19.5,30.565,11.066,11.066,0,0,1,8.435,19.5Zm3.883,0A7.183,7.183,0,1,0,19.5,12.317,7.183,7.183,0,0,0,12.318,19.5ZM27.986,8.934a2.08,2.08,0,1,1,2.081,2.08A2.081,2.081,0,0,1,27.986,8.934Z" transform="translate(0 0.222)" fill="#3a4750"/>
  </g>
</svg>
