<svg id="Group_37" data-name="Group 37" xmlns="http://www.w3.org/2000/svg" width="47.482" height="33.245" viewBox="0 0 47.482 33.245">
  <path id="Subtraction_1" data-name="Subtraction 1" d="M23.741,33.245c-.037,0-3.753,0-7.881-.127-3.809-.116-8.757-.365-10.7-.89A5.948,5.948,0,0,1,.978,28.043C.011,24.408,0,16.7,0,16.622S.011,8.875.978,5.2A6.084,6.084,0,0,1,5.163.978C7.082.473,12.031.234,15.845.122,19.977,0,23.7,0,23.74,0s3.763,0,7.9.127c3.814.116,8.763.364,10.682.89A5.949,5.949,0,0,1,46.5,5.2c1.005,3.673.979,11.382.978,11.46s-.011,7.747-.978,11.42a5.949,5.949,0,0,1-4.185,4.185c-1.919.505-6.868.744-10.682.856C27.5,33.244,23.778,33.245,23.741,33.245ZM18.626,4.114V29.131L31.691,16.622,18.626,4.114Z" transform="translate(0 0)" fill="#3a4750"/>
</svg>
