<svg id="linkedIn-icon" xmlns="http://www.w3.org/2000/svg" width="39.222" height="38.848" viewBox="0 0 39.222 38.848">
  <g id="Group_26" data-name="Group 26" transform="translate(0 0)">
    <path id="LinkedIn__x28_alt_x29_" d="M46.324,10H12.9A2.841,2.841,0,0,0,10,12.783V46.065a2.841,2.841,0,0,0,2.9,2.783H46.324a2.843,2.843,0,0,0,2.9-2.783V12.783A2.841,2.841,0,0,0,46.324,10ZM21.891,42.521H15.963V24.982h5.927ZM18.929,22.583h-.04a3.043,3.043,0,1,1,.08-6.062,3.045,3.045,0,1,1-.04,6.062ZM43.254,42.521H37.331V33.137c0-2.359-.856-3.968-3-3.968A3.228,3.228,0,0,0,31.292,31.3a3.835,3.835,0,0,0-.2,1.419v9.8H25.168s.076-15.9,0-17.543h5.923V27.46a5.894,5.894,0,0,1,5.339-2.9c3.9,0,6.824,2.506,6.824,7.9V42.521Zm-12.2-15c.012-.016.024-.036.04-.056v.056Z" transform="translate(-10 -10)" fill="#3a4750"/>
  </g>
</svg>
