<svg xmlns="http://www.w3.org/2000/svg" width="38.04" height="31.65" viewBox="0 0 38.04 31.65">
  <g id="Group_29" data-name="Group 29" transform="translate(-139.664 -950.3)">
    <g id="right-arrow" transform="translate(160.392 950.3)">
      <path id="Path_68" data-name="Path 68" d="M118.32,14.59,105.207.506a1.538,1.538,0,0,0-2.28,0l-.966,1.037a1.826,1.826,0,0,0,0,2.449l11.012,11.827-11.024,11.84a1.828,1.828,0,0,0,0,2.449l.966,1.037a1.538,1.538,0,0,0,2.28,0l13.126-14.1a1.841,1.841,0,0,0,0-2.457Z" transform="translate(-101.478)" fill="#fff"/>
    </g>
    <rect id="Rectangle_330" data-name="Rectangle 330" width="35.462" height="5.157" rx="2.578" transform="translate(139.664 963.948)" fill="#fff"/>
  </g>
</svg>
